<svg xmlns="http://www.w3.org/2000/svg" viewBox="0 0 192 192"><defs><style>.cls-1{fill:#04a777;}</style></defs><g id="Layer_10" data-name="Layer 10"><path class="cls-1" d="M93.59,154.65V153q0-34,0-67.93c0-1.23-.2-1.74-1.58-2-12.16-2-21.71-13.18-21.82-25.52-.11-12.57,9.64-24.16,22-26,1.12-.17,1.47-.5,1.43-1.63-.08-2.33,0-4.67,0-7,0-1.81,1-3,2.48-2.93s2.32,1.17,2.33,2.91c0,2.34.06,4.68,0,7,0,1.1.26,1.48,1.4,1.64,12.25,1.79,22,13.31,22,25.84s-9.71,23.85-21.94,25.72c-1.08.17-1.46.45-1.46,1.6q.06,34.36,0,68.71c0,.36,0,.71.07,1.22h1.74q11.07,0,22.14,0a10.29,10.29,0,0,1,10.5,10.6c0,1.2,0,2.39,0,3.59,0,2.31-.85,3.16-3.18,3.16H62.49c-2.6,0-3.34-.78-3.35-3.46v-3.43a10.28,10.28,0,0,1,10.33-10.46q11.07,0,22.14,0ZM117,57.5c.08-12-8.9-21.32-20.73-21.4C84.22,36,75.1,45.1,75,57.19s8.89,21.32,20.73,21.4C107.77,78.67,116.89,69.6,117,57.5ZM64,167h63.92c.67-4.75-.74-7.6-6.38-7.54-17.18.17-34.35.06-51.52.06-.62,0-1.23,0-1.84,0a4.48,4.48,0,0,0-4.16,4.1C63.9,164.73,64,165.82,64,167Z"/><path class="cls-1" d="M46.62,70.51l6.11,13.91c3.68,8.39,7.24,16.83,11.11,25.12a15.06,15.06,0,0,1,1,9.82,22.86,22.86,0,0,1-20.47,18c-10.85.76-21.59-8.19-23.07-19.12a14.08,14.08,0,0,1,1.09-7.84c6.18-14.12,12.27-28.29,18.38-42.44a3,3,0,0,1,2.55-1.87c3.87-.74,7.69-1.69,11.53-2.59,2.64-.61,5.27-1.28,7.91-1.9,1.65-.39,2.9.26,3.28,1.7s-.5,2.62-2.16,3C58.56,67.58,53.29,68.83,48,70.1,47.62,70.19,47.23,70.32,46.62,70.51Zm-3.47,4c-5.56,12.83-11,25.3-16.42,37.86H59.8C54.25,99.8,48.79,87.37,43.15,74.56Zm-17,43c.12,8,8.06,15,16.9,15,9,0,16.93-6.88,17.1-15Z"/><path class="cls-1" d="M144.75,46.86,135.64,49c-2.19.52-4.38,1.07-6.57,1.58a2.42,2.42,0,1,1-1.17-4.69c6.36-1.55,12.72-3.14,19.11-4.55,2.59-.56,3.42-.27,4.73,2.78,5.76,13.4,11.56,26.79,17.65,40a16.36,16.36,0,0,1,.5,12.48c-3.07,9.58-12.38,16.26-21.82,15.78a22.77,22.77,0,0,1-20.84-17.9,15.07,15.07,0,0,1,.86-9.83c5.4-11.86,10.56-23.83,15.81-35.76C144.15,48.38,144.37,47.8,144.75,46.86ZM132.18,87.51h33.34L148.85,49.59Zm-.37,5.08c.57,9,9.34,15.92,18.88,14.93,8.14-.83,15.92-8.55,15-14.93Z"/></g></svg>