<svg xmlns="http://www.w3.org/2000/svg" viewBox="0 0 192 192"><defs><style>.cls-1{fill:none;stroke:#04a777;stroke-miterlimit:10;stroke-width:5px;}.cls-2{fill:#04a777;}.cls-3{fill:#e6fff6;}</style></defs><g id="Layer_10" data-name="Layer 10"><rect class="cls-1" x="21.45" y="8" width="136.66" height="176" rx="13.03"/><path class="cls-2" d="M34.47,8H145.09a13,13,0,0,1,13,13V33.8a0,0,0,0,1,0,0H21.45a0,0,0,0,1,0,0V21a13,13,0,0,1,13-13Z"/><rect class="cls-3" x="33.19" y="76.44" width="113.17" height="45.35"/><path class="cls-2" d="M157.31,114.84a20.17,20.17,0,0,0-14.07-.5l-10.62,3.37L124,100.52a8.28,8.28,0,0,0-11.1-3.71l-.11,0a8.29,8.29,0,0,0-3.71,11.1l13.78,27.61-12.36.72A7.38,7.38,0,0,0,104.36,147l0,.09a7.36,7.36,0,0,0,4.68,3.83l24.79,6.7,3.7,7.42a2.15,2.15,0,0,0,3.84-1.92l-4.13-8.28a2.16,2.16,0,0,0-1.36-1.11l-25.72-7a3.08,3.08,0,0,1-2-1.6l0-.09a3.09,3.09,0,0,1,2.59-4.47l15.6-.9a2,2,0,0,0,.43-.07,2.25,2.25,0,0,0,.59-.26s0,0,.06,0l.11-.08.09-.07.07-.06.09-.1a.12.12,0,0,0,0-.05l.09-.1,0-.06.07-.1a.35.35,0,0,1,0-.08l0-.09a.31.31,0,0,0,.05-.1.2.2,0,0,0,0-.08s0-.07,0-.11a.24.24,0,0,0,0-.08.56.56,0,0,0,0-.12s0-.06,0-.09a.36.36,0,0,1,0-.11s0-.09,0-.14v-.07a2,2,0,0,0-.07-.64,1.74,1.74,0,0,0-.15-.4L113,106.05a4,4,0,0,1,1.78-5.35l.11,0a4,4,0,0,1,5.35,1.78l9.2,18.43a.88.88,0,0,0,.12.21,2.13,2.13,0,0,0,2.65,1.28l12.38-3.93h0a15.93,15.93,0,0,1,19.2,8l.09.19a22.85,22.85,0,0,1,2.39,10.52l-.22,12.6a2.15,2.15,0,1,0,4.29.07l.22-12.6a27.07,27.07,0,0,0-2.84-12.5l-.1-.2A20.11,20.11,0,0,0,157.31,114.84Z"/><path class="cls-2" d="M110.38,91.82a2.15,2.15,0,0,0,1-2.88l-2.91-5.83A2.15,2.15,0,1,0,104.59,85l2.91,5.83A2.15,2.15,0,0,0,110.38,91.82Z"/><path class="cls-2" d="M130.07,101.53a2.15,2.15,0,0,0,2.88,1l5.83-2.91a2.14,2.14,0,1,0-1.91-3.84L131,98.65A2.16,2.16,0,0,0,130.07,101.53Z"/><path class="cls-2" d="M125.05,90.47a2.18,2.18,0,0,0,1.08-1.24l2.07-6.18a2.15,2.15,0,1,0-4.07-1.36l-2.07,6.18a2.15,2.15,0,0,0,3,2.6Z"/><path class="cls-2" d="M97.33,103.6a2.15,2.15,0,1,0,1.36-4.07l-6.18-2.06a2.15,2.15,0,0,0-1.36,4.07Z"/><path class="cls-2" d="M98.08,119.89l5.83-2.91a2.15,2.15,0,0,0-1.92-3.84l-5.83,2.92a2.14,2.14,0,1,0,1.92,3.83Z"/></g></svg>