<svg xmlns="http://www.w3.org/2000/svg" viewBox="0 0 192 192"><defs><style>.cls-1{fill:#fff;}.cls-2{fill:#e6fff6;stroke:#04a777;stroke-miterlimit:10;stroke-width:5px;}</style></defs><g id="Layer_10" data-name="Layer 10"><rect class="cls-1" x="0.55" width="192" height="192"/><path class="cls-2" d="M18.48,82.26h155a0,0,0,0,1,0,0v84.9a4.84,4.84,0,0,1-4.84,4.84H23.32a4.84,4.84,0,0,1-4.84-4.84V82.26A0,0,0,0,1,18.48,82.26Z"/><path class="cls-2" d="M18.75,53.93h154.5a5.38,5.38,0,0,1,5.38,5.38V82.16a0,0,0,0,1,0,0H13.37a0,0,0,0,1,0,0V59.31A5.38,5.38,0,0,1,18.75,53.93Z"/><rect class="cls-2" x="36.96" y="98.84" width="118.07" height="28.24" transform="translate(208.96 16.96) rotate(90)"/><path class="cls-2" d="M79.13,53.93a17,17,0,1,1,17-17"/><path class="cls-2" d="M96.09,37a17,17,0,1,1,17,17h-17v0h-17"/></g></svg>