<svg xmlns="http://www.w3.org/2000/svg" viewBox="0 0 192 192"><defs><style>.cls-1{fill:#e6fff6;}.cls-1,.cls-2,.cls-3{stroke:#04a777;stroke-miterlimit:10;stroke-width:5px;}.cls-2,.cls-3{fill:none;}.cls-3{stroke-linecap:round;}</style></defs><g id="Layer_10" data-name="Layer 10"><path class="cls-1" d="M120.41,14.26l40.33,40.32A11.13,11.13,0,0,1,164,62.46V170.25a9.75,9.75,0,0,1-9.76,9.75H45.76A9.75,9.75,0,0,1,36,170.25V20.75A9.75,9.75,0,0,1,45.76,11h66.78A11.13,11.13,0,0,1,120.41,14.26Z"/><path class="cls-2" d="M117.15,11V51.76a6.09,6.09,0,0,0,6.09,6.09H164"/><line class="cls-3" x1="56.32" y1="55.3" x2="101.99" y2="55.3"/><line class="cls-3" x1="56.32" y1="91.09" x2="113.62" y2="91.09"/><line class="cls-3" x1="56.32" y1="143.47" x2="117.74" y2="143.47"/><line class="cls-3" x1="56.32" y1="118.02" x2="95.07" y2="118.02"/><line class="cls-3" x1="109.64" y1="118.02" x2="148.39" y2="118.02"/><line class="cls-3" x1="129.76" y1="91.09" x2="148.96" y2="91.09"/></g></svg>