<svg xmlns="http://www.w3.org/2000/svg" viewBox="0 0 192 192"><defs><style>.cls-1{fill:#e6fff6;stroke:#04a777;stroke-miterlimit:10;stroke-width:5px;}</style></defs><g id="Layer_10" data-name="Layer 10"><rect class="cls-1" x="130.06" y="22.04" width="20.85" height="48.38" rx="3.85"/><path class="cls-1" d="M27.05,74.57v85.32a10.46,10.46,0,0,0,10.46,10.46H152.58A10.46,10.46,0,0,0,163,159.89V74.57L95.4,32.66Z"/><path class="cls-1" d="M102.29,109.9h32.57a3.77,3.77,0,0,1,3.77,3.77v56.68a0,0,0,0,1,0,0H98.53a0,0,0,0,1,0,0V113.67A3.77,3.77,0,0,1,102.29,109.9Z"/><rect class="cls-1" x="49.73" y="111.07" width="29.64" height="27.59" rx="4.16"/><path class="cls-1" d="M177.47,88.92A6.58,6.58,0,0,1,174,88L100.6,43.59a9.92,9.92,0,0,0-10.33,0L18,87.93a6.67,6.67,0,0,1-7-11.37L83.3,32.26a23.18,23.18,0,0,1,24.2-.08l73.43,44.36a6.67,6.67,0,0,1-3.46,12.38Z"/></g></svg>