<svg xmlns="http://www.w3.org/2000/svg" viewBox="0 0 24 24"><defs><style>.cls-1{fill:none;}.cls-2{fill:#fff;}</style></defs><g id="Layer_2" data-name="Layer 2"><g id="Layer_1-2" data-name="Layer 1"><rect class="cls-1" width="24" height="24" rx="12"/><path class="cls-2" d="M18.59,14.89a4.31,4.31,0,0,1-1.07,2.93A3.82,3.82,0,0,1,14.74,19c-1.1.07-4.38.07-5.48,0a3.82,3.82,0,0,1-2.78-1.13,4.26,4.26,0,0,1-1.07-2.93c-.06-1.16-.06-4.62,0-5.78A4.29,4.29,0,0,1,6.48,6.17,3.85,3.85,0,0,1,9.26,5.05c1.1-.07,4.38-.07,5.48,0a3.82,3.82,0,0,1,2.78,1.13,4.26,4.26,0,0,1,1.07,2.93C18.65,10.27,18.65,13.73,18.59,14.89ZM17.44,12a16.58,16.58,0,0,0-.26-4.13,2.34,2.34,0,0,0-1.27-1.33A14.05,14.05,0,0,0,12,6.26a13.71,13.71,0,0,0-3.91.28A2.32,2.32,0,0,0,6.83,7.87,16.11,16.11,0,0,0,6.56,12a16.11,16.11,0,0,0,.27,4.13,2.3,2.3,0,0,0,1.26,1.33,14.08,14.08,0,0,0,3.91.28,13.68,13.68,0,0,0,3.91-.28,2.34,2.34,0,0,0,1.27-1.33A16.58,16.58,0,0,0,17.44,12Zm-2,0A3.49,3.49,0,0,1,12,15.59,3.49,3.49,0,0,1,8.6,12,3.49,3.49,0,0,1,12,8.41,3.49,3.49,0,0,1,15.4,12Zm-1.19,0a2.21,2.21,0,1,0-4.42,0,2.21,2.21,0,1,0,4.42,0Zm1.33-2.9a.84.84,0,0,1,0-1.68.84.84,0,0,1,0,1.68Z"/></g></g></svg>