<svg xmlns="http://www.w3.org/2000/svg" viewBox="0 0 24 24"><defs><style>.cls-1{fill:none;}.cls-2{fill:#fff;}</style></defs><g id="Layer_2" data-name="Layer 2"><g id="Layer_1-2" data-name="Layer 1"><rect class="cls-1" width="24" height="24" rx="12"/><path class="cls-2" d="M5.37,6.68A1.63,1.63,0,0,1,7,5,1.63,1.63,0,0,1,8.55,6.68,1.65,1.65,0,0,1,7,8.38,1.65,1.65,0,0,1,5.37,6.68ZM5.58,19V9.65H8.34V19Zm10.31,0V14.45c0-1.08,0-2.48-1.43-2.48s-1.65,1.18-1.65,2.4V19H10.06V9.65H12.7v1.28h0a2.84,2.84,0,0,1,2.6-1.51c2.78,0,3.29,1.93,3.29,4.45V19H15.89Z"/></g></g></svg>