<svg xmlns="http://www.w3.org/2000/svg" viewBox="0 0 24 24"><defs><style>.cls-1{fill:none;}.cls-2{fill:#fff;}</style></defs><g id="Layer_2" data-name="Layer 2"><g id="Layer_1-2" data-name="Layer 1"><rect class="cls-1" width="24" height="24" rx="12"/><path class="cls-2" d="M18,9.17c0,4.33-3.12,9.33-8.84,9.33A8.46,8.46,0,0,1,4.42,17a6.17,6.17,0,0,0,.75,0A6.05,6.05,0,0,0,9,15.67a3.16,3.16,0,0,1-2.91-2.28,3.81,3.81,0,0,0,.59,0,3.18,3.18,0,0,0,.82-.11A3.23,3.23,0,0,1,5,10.11v0a3.09,3.09,0,0,0,1.41.42A3.33,3.33,0,0,1,5.05,7.76,3.42,3.42,0,0,1,5.48,6.1a8.68,8.68,0,0,0,6.4,3.43,4.54,4.54,0,0,1-.07-.75A3.19,3.19,0,0,1,14.92,5.5a3,3,0,0,1,2.27,1,6,6,0,0,0,2-.79,3.19,3.19,0,0,1-1.37,1.8,6,6,0,0,0,1.79-.5A6.79,6.79,0,0,1,18,8.74C18,8.88,18,9,18,9.17Z"/></g></g></svg>