<svg id="appstore" xmlns="http://www.w3.org/2000/svg" width="209" height="60" viewBox="0 0 209 60">
  <path id="Path_870" d="M209,54a6.018,6.018,0,0,1-6,6H6a6.018,6.018,0,0,1-6-6V6A6.018,6.018,0,0,1,6,0H203a6.018,6.018,0,0,1,6,6h0V54Z" fill="#fff"/>
  <path id="Path_872" d="M209,54a6.018,6.018,0,0,1-6,6H6a6.018,6.018,0,0,1-6-6V6A6.018,6.018,0,0,1,6,0H203a6.018,6.018,0,0,1,6,6h0V54Z"/>
  <path id="Path_873" d="M45.9,29.7a9.031,9.031,0,0,1,4.3-7.6,9.391,9.391,0,0,0-7.3-4c-3.1-.3-6.1,1.8-7.7,1.8s-4-1.8-6.6-1.8a9.648,9.648,0,0,0-8.2,5c-3.6,6.2-.9,15.2,2.5,20.2,1.7,2.4,3.7,5.2,6.3,5.1s3.5-1.6,6.6-1.6,3.9,1.6,6.6,1.6,4.5-2.5,6.1-4.9a20.166,20.166,0,0,0,2.8-5.7A8.811,8.811,0,0,1,45.9,29.7Zm-5-14.9A9.337,9.337,0,0,0,43,8.4a8.614,8.614,0,0,0-5.9,3.1A8.683,8.683,0,0,0,35,17.7,8.2,8.2,0,0,0,40.9,14.8Z" fill="#fff"/>
  <g id="Group_194" transform="translate(65.208 26.867)">
    <path id="Path_875" d="M17.6,21.2H14l-2-6.1H5.3L3.4,21.2H0L6.7.3h4.2Zm-6.1-8.7L9.8,7A34.239,34.239,0,0,1,8.7,3.1H8.6Q8.3,4.45,7.7,7L6,12.5Zm23.4,1a8.593,8.593,0,0,1-2.1,6.1,6.287,6.287,0,0,1-4.6,2,4.811,4.811,0,0,1-4.3-2.1v7.9H20.6V11.1c0-1.6,0-3.3-.1-5h2.9l.2,2.4h.1a5.866,5.866,0,0,1,8.2-1.7,6.885,6.885,0,0,1,1.3,1.1,8.649,8.649,0,0,1,1.7,5.6Zm-3.4.1a5.8,5.8,0,0,0-1-3.6,3.5,3.5,0,0,0-5.1-.7,3.55,3.55,0,0,0-1.3,2.2c-.1.3-.1.7-.2,1V15a4.192,4.192,0,0,0,1,2.8,3.272,3.272,0,0,0,2.6,1.1,3.27,3.27,0,0,0,2.9-1.5,5.681,5.681,0,0,0,1.1-3.8Zm20.7-.1a8.593,8.593,0,0,1-2.1,6.1,6.287,6.287,0,0,1-4.6,2,4.811,4.811,0,0,1-4.3-2.1v7.9H37.9V11.1c0-1.6,0-3.3-.1-5h2.9l.2,2.4H41a5.866,5.866,0,0,1,8.2-1.7,6.885,6.885,0,0,1,1.3,1.1,8.649,8.649,0,0,1,1.7,5.6Zm-3.4.1a5.8,5.8,0,0,0-1-3.6,3.5,3.5,0,0,0-5.1-.7,3.55,3.55,0,0,0-1.3,2.2c-.1.3-.1.7-.2,1V15a4.192,4.192,0,0,0,1,2.8,3.585,3.585,0,0,0,5.5-.4,5.681,5.681,0,0,0,1.1-3.8Zm22.8,1.7a5.122,5.122,0,0,1-1.9,4.3A7.83,7.83,0,0,1,64,21.4a10.06,10.06,0,0,1-5.4-1.3l.8-2.8a9.123,9.123,0,0,0,4.8,1.3,4.28,4.28,0,0,0,2.9-.8,2.845,2.845,0,0,0,1.1-2.3,2.723,2.723,0,0,0-.9-2.1,7.476,7.476,0,0,0-2.9-1.6c-3.7-1.4-5.5-3.4-5.5-6a5.535,5.535,0,0,1,1.9-4.2A7.407,7.407,0,0,1,65.9,0a9.494,9.494,0,0,1,4.7,1L70,3.7a7.924,7.924,0,0,0-4-1,3.658,3.658,0,0,0-2.8.9,2.732,2.732,0,0,0-.8,1.9,2.221,2.221,0,0,0,1,2,10.805,10.805,0,0,0,3,1.6,10.425,10.425,0,0,1,4,2.5,6.284,6.284,0,0,1,1.2,3.7ZM82.7,8.7H79V16c0,1.9.7,2.8,2,2.8a3.887,3.887,0,0,0,1.5-.2l.1,2.5a7.457,7.457,0,0,1-2.6.4,3.928,3.928,0,0,1-3.1-1.2,5.482,5.482,0,0,1-1.1-4.1V8.6H73.6V6.1h2.2V3.4l3.3-1V6.2h3.7V8.7Zm16.6,4.9a7.99,7.99,0,0,1-2,5.7,7.112,7.112,0,0,1-5.5,2.3,6.747,6.747,0,0,1-5.3-2.2,8.531,8.531,0,0,1-2-5.6,7.838,7.838,0,0,1,2-5.7A7.408,7.408,0,0,1,92,5.8,6.614,6.614,0,0,1,97.3,8a7.753,7.753,0,0,1,2,5.6Zm-3.5,0a7.683,7.683,0,0,0-.9-3.6,3.375,3.375,0,0,0-3-1.8A3.532,3.532,0,0,0,88.8,10a7.65,7.65,0,0,0,0,7.2,3.457,3.457,0,0,0,4.7,1.4,3.159,3.159,0,0,0,1.4-1.4,6.445,6.445,0,0,0,.9-3.6Zm14.4-4.5a4.1,4.1,0,0,0-1.1-.1,3.1,3.1,0,0,0-2.7,1.3,4.551,4.551,0,0,0-.8,3v7.9h-3.3V10.9c0-1.6,0-3.2-.1-4.7h2.9l.1,2.9h.1A5.068,5.068,0,0,1,107,6.7a4.069,4.069,0,0,1,2.4-.8,1.949,1.949,0,0,1,.8.1Zm15,3.9a7.569,7.569,0,0,1-.1,1.5h-10a4.478,4.478,0,0,0,1.5,3.4,5.456,5.456,0,0,0,3.3,1.1,11.409,11.409,0,0,0,4.1-.7l.5,2.3a10.837,10.837,0,0,1-5,.9,7.218,7.218,0,0,1-5.5-2.1,7.519,7.519,0,0,1-2-5.5,8.375,8.375,0,0,1,1.9-5.7,6.358,6.358,0,0,1,5.3-2.4,5.522,5.522,0,0,1,4.9,2.4,12.516,12.516,0,0,1,1.1,4.8Zm-3.2-.9a5.834,5.834,0,0,0-.6-2.6,2.968,2.968,0,0,0-2.7-1.4A3.189,3.189,0,0,0,116,9.5a5.238,5.238,0,0,0-1,2.6Z" fill="#fff"/>
  </g>
  <g id="Group_195" transform="translate(67.167 8.893)">
    <path id="Path_876" d="M2.4,10.9A19.269,19.269,0,0,1,0,10.8V.7A26.352,26.352,0,0,1,2.8.5c3.8,0,5.6,1.9,5.6,5C8.4,9,6.4,10.9,2.4,10.9ZM3,1.8a5.7,5.7,0,0,0-1.3.1V9.6a4.052,4.052,0,0,0,1.1,0c2.5,0,3.9-1.4,3.9-4.1C6.7,3.1,5.4,1.8,3,1.8ZM13.9,11a3.629,3.629,0,0,1-3.6-3.5V7.2a3.594,3.594,0,0,1,3.3-3.9H14a3.614,3.614,0,0,1,3.6,3.4v.4A3.594,3.594,0,0,1,14.3,11ZM14,4.4c-1.2,0-1.9,1.1-1.9,2.7,0,1.5.8,2.6,1.9,2.6S15.9,8.5,15.9,7c0-1.4-.7-2.6-1.9-2.6Zm16-1-2.3,7.4H26.2l-1-3.2-.6-2.4h0L24,7.6l-1,3.2H21.5L19.3,3.4H21l.8,3.5a20.481,20.481,0,0,1,.5,2.4h0a20.678,20.678,0,0,1,.6-2.4L24,3.4h1.3l1,3.5c.2.8.4,1.7.6,2.4h0a20.481,20.481,0,0,1,.5-2.4l.9-3.5Zm8.5,7.4H36.9V6.6c0-1.3-.5-2-1.5-2a1.634,1.634,0,0,0-1.6,1.8h0v4.4H32.2V5.5a14.769,14.769,0,0,0-.1-2.1h1.4l.1,1.1h0a2.772,2.772,0,0,1,2.3-1.3c1.6,0,2.6,1.2,2.6,3.1v4.5Zm4.5,0H41.4V0H43Zm6,.2a3.629,3.629,0,0,1-3.6-3.5V7.2a3.594,3.594,0,0,1,3.3-3.9h.4a3.614,3.614,0,0,1,3.6,3.4v.4A3.594,3.594,0,0,1,49.4,11Zm.1-6.6c-1.2,0-1.9,1.1-1.9,2.7,0,1.5.8,2.6,1.9,2.6S51,8.6,51,7.1s-.8-2.7-1.9-2.7Zm10.1,6.4-.1-.8h0a2.345,2.345,0,0,1-2.2,1,2.138,2.138,0,0,1-2.3-2V8.9C54.6,7,56.2,6,58.9,6V5.9a1.326,1.326,0,0,0-1.5-1.5,3.83,3.83,0,0,0-1.9.5l-.3-1.1a4.618,4.618,0,0,1,2.5-.6c1.9,0,2.9,1,2.9,3.1V9a10.869,10.869,0,0,0,.1,1.8ZM59,7.1c-1.8,0-2.7.4-2.7,1.5a1.108,1.108,0,0,0,.9,1.2h.2A1.5,1.5,0,0,0,59,8.3Zm9.6,3.7-.1-1.2h0A2.693,2.693,0,0,1,66.1,11C64.3,11,63,9.4,63,7.2c0-2.3,1.4-3.9,3.2-3.9a2.277,2.277,0,0,1,2.1,1h0V0H70V8.8a12.75,12.75,0,0,0,.1,2Zm-.3-4.4a1.792,1.792,0,0,0-1.7-1.9h-.1c-1.2,0-2,1.1-2,2.6s.8,2.5,1.9,2.5a1.88,1.88,0,0,0,1.8-1.9h0ZM80.4,11a3.629,3.629,0,0,1-3.6-3.5V7.2a3.594,3.594,0,0,1,3.3-3.9h.4a3.614,3.614,0,0,1,3.6,3.4v.4A3.594,3.594,0,0,1,80.8,11Zm.1-6.6c-1.2,0-1.9,1.1-1.9,2.7,0,1.5.8,2.6,1.9,2.6,1.2,0,1.9-1.2,1.9-2.7,0-1.4-.8-2.6-1.9-2.6Zm12.4,6.4H91.2V6.6c0-1.3-.5-2-1.5-2a1.634,1.634,0,0,0-1.6,1.8h0v4.4H86.5V5.5a14.769,14.769,0,0,0-.1-2.1h1.4L88,4.5h0a2.772,2.772,0,0,1,2.3-1.3c1.6,0,2.6,1.2,2.6,3.1ZM104,4.6h-1.8V8.2c0,.9.3,1.4,1,1.4a1.7,1.7,0,0,0,.7-.1v1.3a5.067,5.067,0,0,1-1.3.2c-1.3,0-2.1-.7-2.1-2.6V4.6H99.4V3.4h1.1V2l1.6-.5V3.3h1.8V4.6Zm8.7,6.2h-1.6V6.6c0-1.3-.5-2-1.5-2a1.735,1.735,0,0,0-1.7,1.6v4.7h-1.6V0h1.6V4.4h0a2.509,2.509,0,0,1,2.2-1.2c1.6,0,2.5,1.2,2.5,3.2Zm8.9-3.3h-4.9a2.12,2.12,0,0,0,2,2.2h.3a6.448,6.448,0,0,0,2-.3l.3,1.1a6.963,6.963,0,0,1-2.5.5,3.531,3.531,0,0,1-3.7-3.2V7.2c0-2.3,1.4-4,3.5-4,1.9,0,3.1,1.4,3.1,3.5a1.95,1.95,0,0,1-.1.8Zm-1.5-1.2c0-1.1-.6-2-1.6-2a1.973,1.973,0,0,0-1.8,2Z" fill="#fff"/>
  </g>
</svg>
