<svg id="playstore" xmlns="http://www.w3.org/2000/svg" xmlns:xlink="http://www.w3.org/1999/xlink" width="209" height="60" viewBox="0 0 209 60">
  <defs>
    <linearGradient id="linear-gradient" x1="-20.637" y1="13.813" x2="-20.703" y2="13.831" gradientUnits="objectBoundingBox">
      <stop offset="0" stop-color="#00a0ff"/>
      <stop offset="0.007" stop-color="#00a1ff"/>
      <stop offset="0.26" stop-color="#00beff"/>
      <stop offset="0.512" stop-color="#00d2ff"/>
      <stop offset="0.76" stop-color="#00dfff"/>
      <stop offset="1" stop-color="#00e3ff"/>
    </linearGradient>
    <linearGradient id="linear-gradient-2" x1="-27.608" y1="37.878" x2="-27.766" y2="37.878" gradientUnits="objectBoundingBox">
      <stop offset="0" stop-color="#ffe000"/>
      <stop offset="0.409" stop-color="#ffbd00"/>
      <stop offset="0.775" stop-color="orange"/>
      <stop offset="1" stop-color="#ff9c00"/>
    </linearGradient>
    <linearGradient id="linear-gradient-3" x1="-16.354" y1="25.233" x2="-16.408" y2="25.324" gradientUnits="objectBoundingBox">
      <stop offset="0" stop-color="#ff3a44"/>
      <stop offset="1" stop-color="#c31162"/>
    </linearGradient>
    <linearGradient id="linear-gradient-4" x1="-16.402" y1="26.214" x2="-16.377" y2="26.255" gradientUnits="objectBoundingBox">
      <stop offset="0" stop-color="#32a071"/>
      <stop offset="0.069" stop-color="#2da771"/>
      <stop offset="0.476" stop-color="#15cf74"/>
      <stop offset="0.801" stop-color="#06e775"/>
      <stop offset="1" stop-color="#00f076"/>
    </linearGradient>
  </defs>
  <path id="Path_872" d="M209,54a6.018,6.018,0,0,1-6,6H6a6.018,6.018,0,0,1-6-6V6A6.018,6.018,0,0,1,6,0H203a6.018,6.018,0,0,1,6,6h0V54Z"/>
  <path id="Path_879" d="M74.4,15.3a4.064,4.064,0,0,1-1,3,4.708,4.708,0,0,1-6.6,0A4.224,4.224,0,0,1,65.5,15a5.069,5.069,0,0,1,1.3-3.3,4.224,4.224,0,0,1,3.3-1.3,5.84,5.84,0,0,1,1.8.4,3.249,3.249,0,0,1,1.3,1l-.7.8a2.8,2.8,0,0,0-2.4-1,2.885,2.885,0,0,0-2.4,1.1,2.989,2.989,0,0,0-1,2.5,3.188,3.188,0,0,0,1,2.6,3.69,3.69,0,0,0,2.4,1,3.174,3.174,0,0,0,2.5-1,2.086,2.086,0,0,0,.7-1.8H70V14.8h4.3C74.4,14.7,74.4,15.3,74.4,15.3Zm6.9-3.7h-4v2.9H81v1H77.3v2.9h4v1.2H76.1v-9h5.2Zm4.9,7.9H85V11.6H82.5V10.5h6.3v1.1H86.3v7.9Zm6.9,0v-9h1.2v9Zm6.3,0H98.2V11.6H95.7V10.5h6.1v1.1H99.3v7.9Zm14.2-1.2a4.708,4.708,0,0,1-6.6,0,4.224,4.224,0,0,1-1.3-3.3,5.069,5.069,0,0,1,1.3-3.3,4.708,4.708,0,0,1,6.6,0,4.224,4.224,0,0,1,1.3,3.3,4.224,4.224,0,0,1-1.3,3.3Zm-5.7-.8a4.116,4.116,0,0,0,2.4,1.1,2.885,2.885,0,0,0,2.4-1.1,3.541,3.541,0,0,0,1-2.6,2.877,2.877,0,0,0-1-2.5,4.116,4.116,0,0,0-2.4-1.1,2.885,2.885,0,0,0-2.4,1.1,3.541,3.541,0,0,0-1,2.6,2.877,2.877,0,0,0,1,2.5Zm8.7,2v-9h1.3l4.3,7.1v-7h1.2v9h-1.2l-4.6-7.4v7.4h-1Z" fill="#fff"/>
  <path id="Path_880" d="M105.4,32.7A6.213,6.213,0,0,0,99,38.9v.3a6.359,6.359,0,0,0,6.3,6.4h.1a6.213,6.213,0,0,0,6.4-6.2v-.3a6.169,6.169,0,0,0-6-6.4Zm0,10.2a3.689,3.689,0,0,1-3.6-3.8V39a3.7,3.7,0,0,1,3.5-3.9h.1a3.671,3.671,0,0,1,3.6,3.7V39a3.716,3.716,0,0,1-3.6,3.9ZM91.5,32.7a6.213,6.213,0,0,0-6.4,6.2v.3a6.359,6.359,0,0,0,6.3,6.4h.1a6.213,6.213,0,0,0,6.4-6.2v-.3a6.169,6.169,0,0,0-6-6.4Zm0,10.2a3.689,3.689,0,0,1-3.6-3.8V39a3.7,3.7,0,0,1,3.5-3.9h.1a3.671,3.671,0,0,1,3.6,3.7V39a3.716,3.716,0,0,1-3.6,3.9ZM74.9,34.7v2.7h6.4a5.32,5.32,0,0,1-1.5,3.4,7,7,0,0,1-11.9-4.9v-.3a7.043,7.043,0,0,1,6.9-7.2h.1a6.966,6.966,0,0,1,4.9,2l1.9-2A9.806,9.806,0,0,0,75,25.7a9.9,9.9,0,1,0,0,19.8,8.985,8.985,0,0,0,6.9-2.8,9.186,9.186,0,0,0,2.4-6.3,4.145,4.145,0,0,0-.2-1.6C84.2,34.7,74.9,34.7,74.9,34.7Zm67.9,2.1a5.671,5.671,0,0,0-5.4-4c-3.3,0-6,2.5-6,6.5a6.191,6.191,0,0,0,6.1,6.4h.2a6.268,6.268,0,0,0,5.2-2.8l-2.1-1.5a3.654,3.654,0,0,1-3.1,1.8,3.038,3.038,0,0,1-3.1-2l8.5-3.6-.3-.8Zm-8.7,2.1a3.709,3.709,0,0,1,3.3-3.8,2.813,2.813,0,0,1,2.4,1.3Zm-7,6.1h2.8V26.3h-2.8V45Zm-4.5-11a4.859,4.859,0,0,0-3.4-1.5,6.479,6.479,0,0,0-6.1,6.5,6.231,6.231,0,0,0,6.1,6.3h0a4.13,4.13,0,0,0,3.3-1.5h.2v.9c0,2.4-1.3,3.8-3.4,3.8a3.21,3.21,0,0,1-3.1-2.3l-2.4,1a6.212,6.212,0,0,0,5.7,3.8c3.3,0,6-2,6-6.6V33h-2.7v1Zm-3.3,8.9a3.689,3.689,0,0,1-3.6-3.8V39a3.7,3.7,0,0,1,3.5-3.9h.1a3.743,3.743,0,0,1,3.5,3.8V39a3.594,3.594,0,0,1-3.3,3.9Zm36.5-16.6h-6.7V45h2.8V38h3.9a5.855,5.855,0,1,0,.5-11.7A.446.446,0,0,0,155.8,26.3Zm.2,9h-4V28.8h4a3.309,3.309,0,0,1,3.3,3.2A3.548,3.548,0,0,1,156,35.3Zm17.2-2.8c-2.1,0-4.2.9-4.9,2.9l2.5,1a2.851,2.851,0,0,1,2.5-1.4,2.773,2.773,0,0,1,3,2.4v.1a6.937,6.937,0,0,0-2.8-.8c-2.7,0-5.4,1.5-5.4,4.2a4.382,4.382,0,0,0,4.6,4.2h.1a4.276,4.276,0,0,0,3.6-1.8h.1V45h2.7V37.8A5.822,5.822,0,0,0,173.2,32.5Zm-.3,10.4c-.9,0-2.2-.5-2.2-1.7,0-1.5,1.6-2,3-2a5.135,5.135,0,0,1,2.5.6,3.52,3.52,0,0,1-3.3,3.1ZM188.6,33l-3.1,8.1h-.1L182,33h-3l4.9,11.4-2.8,6.3h2.8L191.5,33ZM163.5,45h2.8V26.3h-2.8Z" fill="#fff"/>
  <g id="Group_196" transform="translate(14.963 10.721)">
    <path id="Path_881" d="M4.1.5a2.743,2.743,0,0,0-.6,2.1V35.7a3.139,3.139,0,0,0,.7,2.1l.2.2L23,19.4v-.3Z" fill="url(#linear-gradient)"/>
    <path id="Path_882" d="M28.9,25.7l-6.1-6.1v-.5L28.9,13l.1.1,7.3,4.2c2.1,1.2,2.1,3.1,0,4.4Z" fill="url(#linear-gradient-2)"/>
    <path id="Path_883" d="M29.1,25.6l-6.3-6.3L4.1,38c.7.8,1.8.8,3.1.2L29.1,25.6" fill="url(#linear-gradient-3)"/>
    <path id="Path_884" d="M29.1,13,7.2.5C5.9-.2,4.8-.1,4.1.7L22.8,19.3,29.1,13Z" fill="url(#linear-gradient-4)"/>
    <path id="Path_885" d="M28.9,25.4,7.2,37.7a2.4,2.4,0,0,1-3,0l-.1.2.1.1a2.4,2.4,0,0,0,3,0Z" opacity="0.2"/>
    <path id="Path_886" d="M4.1,37.7a2.635,2.635,0,0,1-.6-2.1v.2a3.139,3.139,0,0,0,.7,2.1v-.2ZM36.4,21.2l-7.5,4.2.2.1,7.3-4.2a2.534,2.534,0,0,0,1.5-2.1c0,.8-.6,1.4-1.5,2Z" opacity="0.12"/>
    <path id="Path_887" d="M7.2.7,36.4,17.3c.9.6,1.5,1.2,1.5,2a2.534,2.534,0,0,0-1.5-2.1L7.2.5C5.1-.7,3.5.2,3.5,2.6v.1C3.5.5,5.1-.5,7.2.7Z" fill="#fff" opacity="0.25"/>
  </g>
</svg>
