<?xml version="1.0" standalone="no"?>
<!DOCTYPE svg PUBLIC "-//W3C//DTD SVG 20010904//EN"
 "http://www.w3.org/TR/2001/REC-SVG-20010904/DTD/svg10.dtd">
<svg version="1.0" xmlns="http://www.w3.org/2000/svg"
 width="1024.000000pt" height="1024.000000pt" viewBox="0 0 1024.000000 1024.000000"
 preserveAspectRatio="xMidYMid meet">
<metadata>
Created by potrace 1.11, written by Peter Selinger 2001-2013
</metadata>
<g transform="translate(0.000000,1024.000000) scale(0.100000,-0.100000)"
fill="#000000" stroke="none">
<path d="M165 7804 c-60 -21 -109 -66 -138 -126 -22 -45 -26 -64 -23 -123 4
-81 22 -121 77 -175 79 -76 -221 -70 3274 -73 1722 -1 3150 -6 3175 -10 25 -3
67 -9 94 -13 27 -3 56 -7 65 -9 9 -1 36 -6 61 -10 69 -11 67 -11 196 -44 746
-189 1385 -674 1765 -1341 49 -85 95 -176 142 -280 42 -91 110 -290 149 -435
27 -103 41 -133 75 -169 102 -108 279 -106 375 3 72 82 79 152 33 327 -150
575 -468 1115 -905 1540 -132 128 -150 143 -283 247 -168 131 -366 255 -562
352 -148 73 -210 100 -399 171 -148 56 -503 139 -686 159 -30 4 -71 9 -90 12
-19 4 -1457 7 -3195 9 -2735 2 -3165 1 -3200 -12z"/>
<path d="M825 6989 c-86 -8 -113 -18 -165 -65 -132 -119 -101 -330 60 -415
l45 -24 1497 0 c824 0 1498 -3 1498 -6 0 -4 -8 -17 -19 -30 -27 -36 -201 -297
-201 -303 0 -3 -16 -31 -36 -62 -84 -131 -219 -428 -259 -569 -10 -33 -21 -64
-26 -69 -5 -6 -507 -10 -1226 -11 -861 -1 -1228 -5 -1251 -13 -120 -40 -191
-190 -152 -320 23 -74 106 -151 184 -168 25 -6 2875 -9 2880 -3 2 2 7 31 10
64 4 33 9 67 11 75 2 8 7 42 10 75 3 33 13 87 22 120 8 33 17 70 19 82 8 43
75 208 128 312 101 201 192 344 385 600 64 85 123 164 131 175 8 12 19 26 25
32 5 6 24 28 42 50 17 21 110 136 207 254 96 118 173 216 171 219 -7 6 -3916
6 -3990 0z"/>
<path d="M5612 6988 c-117 -20 -199 -109 -209 -229 -10 -105 44 -200 141 -252
40 -21 50 -22 516 -23 554 -2 624 -6 788 -48 445 -116 821 -427 1017 -843 34
-71 80 -204 109 -314 20 -73 51 -117 109 -156 160 -107 382 3 391 195 2 55
-23 169 -65 290 -38 109 -51 141 -118 271 -142 280 -309 479 -598 711 -97 78
-321 201 -482 264 -92 37 -316 99 -396 110 -188 27 -178 27 -762 29 -221 1
-419 -1 -441 -5z"/>
<path d="M4567 4630 c-137 -29 -211 -55 -352 -125 -317 -159 -571 -428 -707
-750 -19 -46 -56 -165 -63 -204 -2 -14 -9 -48 -14 -76 -6 -27 -9 -113 -7 -190
4 -151 25 -248 83 -372 107 -230 313 -395 578 -464 121 -31 368 -33 490 -5
540 125 969 532 1102 1044 25 95 28 124 28 267 0 135 -4 173 -23 245 -79 295
-300 524 -587 609 -110 32 -121 34 -285 36 -120 2 -175 -1 -243 -15z m319
-495 c70 -8 160 -53 213 -105 67 -67 104 -169 104 -285 -1 -155 -96 -362 -236
-511 -282 -302 -712 -396 -922 -203 -140 129 -155 349 -39 583 133 268 401
471 686 519 74 13 101 13 194 2z"/>
<path d="M8369 4646 c-2 -2 -24 -7 -48 -10 -314 -43 -667 -254 -886 -531 -22
-27 -42 -52 -45 -55 -15 -14 -92 -143 -123 -205 -134 -268 -167 -575 -87 -824
59 -186 184 -349 350 -456 65 -41 193 -100 240 -108 14 -3 48 -11 75 -18 56
-15 297 -19 385 -6 75 10 219 52 310 90 379 156 696 491 826 871 73 212 80
457 19 656 -92 299 -352 524 -675 584 -64 12 -331 21 -341 12z m320 -535 c108
-41 186 -128 216 -242 18 -66 12 -204 -10 -279 -90 -295 -366 -557 -675 -639
-102 -27 -261 -24 -340 7 -242 94 -304 367 -152 667 186 368 652 604 961 486z"/>
<path d="M2191 4588 c-62 -11 -108 -36 -150 -84 -109 -125 -71 -317 79 -391
l55 -28 658 0 659 0 83 105 c117 148 248 270 389 362 l59 38 -34 1 c-247 4
-1768 2 -1798 -3z"/>
<path d="M5584 4590 l-91 -5 36 -29 c101 -83 220 -253 272 -391 l31 -80 689 0
690 0 30 40 c126 170 254 297 403 401 47 32 85 61 85 64 1 3 -461 5 -1027 5
-565 0 -1068 -2 -1118 -5z"/>
<path d="M9284 4592 l-72 -3 77 -77 c110 -110 177 -215 240 -372 l21 -56 248
2 c286 1 304 5 376 85 96 106 86 268 -23 361 -66 57 -92 60 -463 62 -183 0
-365 0 -404 -2z"/>
</g>
</svg>
