<svg id="download-on-the-app-store-apple" xmlns="http://www.w3.org/2000/svg" width="209" height="60" viewBox="0 0 209 60">
  <path id="Path_870" data-name="Path 870" d="M212.562,57.547a6.013,6.013,0,0,1-6.018,6.014H9.588a6.021,6.021,0,0,1-6.026-6.014V9.583A6.029,6.029,0,0,1,9.588,3.561H206.542a6.02,6.02,0,0,1,6.018,6.022l0,47.963Z" transform="translate(-3.562 -3.561)" fill="#fff"/>
  <path id="Path_872" data-name="Path 872" d="M212.562,57.547a6.013,6.013,0,0,1-6.018,6.014H9.588a6.021,6.021,0,0,1-6.026-6.014V9.583A6.029,6.029,0,0,1,9.588,3.561H206.542a6.02,6.02,0,0,1,6.018,6.022l0,47.963Z" transform="translate(-3.562 -3.561)"/>
  <path id="Path_873" data-name="Path 873" d="M78.409,46.18a9.1,9.1,0,0,1,4.334-7.638,9.319,9.319,0,0,0-7.34-3.97c-3.088-.325-6.083,1.848-7.656,1.848-1.6,0-4.026-1.817-6.637-1.764a9.772,9.772,0,0,0-8.226,5.019c-3.557,6.16-.9,15.214,2.5,20.193,1.7,2.44,3.7,5.162,6.3,5.066,2.551-.1,3.5-1.625,6.582-1.625,3.05,0,3.945,1.625,6.6,1.564,2.738-.042,4.461-2.45,6.106-4.91a20.135,20.135,0,0,0,2.793-5.689A8.806,8.806,0,0,1,78.409,46.18ZM73.385,31.3a8.962,8.962,0,0,0,2.05-6.421,9.123,9.123,0,0,0-5.9,3.053,8.529,8.529,0,0,0-2.1,6.184A7.535,7.535,0,0,0,73.385,31.3Z" transform="translate(-32.512 -16.51)" fill="#fff"/>
  <g id="Group_194" data-name="Group 194" transform="translate(65.208 26.867)">
    <path id="Path_875" data-name="Path 875" d="M187.448,93.223h-3.565l-1.953-6.139h-6.788l-1.86,6.139h-3.471l6.726-20.9h4.154Zm-6.106-8.714-1.766-5.457q-.28-.836-1.053-3.937h-.063q-.311,1.333-.992,3.937l-1.736,5.457Zm23.37.994a8.535,8.535,0,0,1-2.088,6.076,6.12,6.12,0,0,1-4.643,1.985,4.648,4.648,0,0,1-4.3-2.137v7.907h-3.347V83.107q0-2.414-.124-4.953h2.943l.187,2.388h.063a5.952,5.952,0,0,1,9.53-.592,8.335,8.335,0,0,1,1.78,5.553Zm-3.41.122A6.214,6.214,0,0,0,200.31,82,3.428,3.428,0,0,0,197.4,80.51a3.48,3.48,0,0,0-2.246.821,3.81,3.81,0,0,0-1.317,2.156,4.375,4.375,0,0,0-.155,1.019v2.514a4.033,4.033,0,0,0,1.008,2.776,3.345,3.345,0,0,0,2.618,1.132,3.43,3.43,0,0,0,2.943-1.457A6.415,6.415,0,0,0,201.3,85.626Zm20.735-.122a8.535,8.535,0,0,1-2.088,6.076,6.123,6.123,0,0,1-4.645,1.985,4.648,4.648,0,0,1-4.3-2.137v7.907h-3.347V83.107q0-2.414-.124-4.953h2.943l.187,2.388h.063a5.954,5.954,0,0,1,9.532-.592,8.343,8.343,0,0,1,1.78,5.553Zm-3.411.122A6.215,6.215,0,0,0,217.633,82a3.423,3.423,0,0,0-2.91-1.487,3.494,3.494,0,0,0-2.249.821,3.807,3.807,0,0,0-1.315,2.156A4.475,4.475,0,0,0,211,84.506v2.514a4.046,4.046,0,0,0,1.006,2.776,3.352,3.352,0,0,0,2.621,1.132,3.426,3.426,0,0,0,2.943-1.457A6.415,6.415,0,0,0,218.626,85.626Zm22.782,1.735a5.583,5.583,0,0,1-1.857,4.342,8.229,8.229,0,0,1-5.69,1.829,9.929,9.929,0,0,1-5.409-1.3l.774-2.791a9.308,9.308,0,0,0,4.835,1.3A4.56,4.56,0,0,0,237,89.891a2.786,2.786,0,0,0,1.056-2.277,2.919,2.919,0,0,0-.87-2.14,8.061,8.061,0,0,0-2.882-1.611q-5.486-2.047-5.488-5.986a5.286,5.286,0,0,1,1.937-4.216,7.658,7.658,0,0,1,5.13-1.644,10.134,10.134,0,0,1,4.742.992l-.84,2.729a8.289,8.289,0,0,0-4.014-.961,4.081,4.081,0,0,0-2.769.868,2.486,2.486,0,0,0-.84,1.894,2.56,2.56,0,0,0,.962,2.046,10.838,10.838,0,0,0,3.036,1.611,10.292,10.292,0,0,1,3.967,2.541,5.3,5.3,0,0,1,1.276,3.624ZM252.5,80.667h-3.689v7.316q0,2.791,1.953,2.789a5.877,5.877,0,0,0,1.487-.155l.093,2.542a7.58,7.58,0,0,1-2.6.371,4.01,4.01,0,0,1-3.1-1.211,5.939,5.939,0,0,1-1.116-4.062v-7.6h-2.2V78.148h2.2V75.389l3.287-.992v3.752H252.5v2.519Zm16.611,4.9a8.268,8.268,0,0,1-1.984,5.705,7.071,7.071,0,0,1-5.516,2.294,6.741,6.741,0,0,1-5.285-2.2,8.017,8.017,0,0,1-1.968-5.55,8.2,8.2,0,0,1,2.03-5.735,7.034,7.034,0,0,1,5.472-2.233,6.882,6.882,0,0,1,5.329,2.2A7.913,7.913,0,0,1,269.113,85.565Zm-3.469.077a6.75,6.75,0,0,0-.9-3.555,3.313,3.313,0,0,0-3.008-1.795,3.361,3.361,0,0,0-3.069,1.795,6.861,6.861,0,0,0-.9,3.618,6.73,6.73,0,0,0,.9,3.557,3.431,3.431,0,0,0,6.048-.03A6.776,6.776,0,0,0,265.643,85.642ZM280,81.1a5.823,5.823,0,0,0-1.055-.093,3.158,3.158,0,0,0-2.728,1.335,5.029,5.029,0,0,0-.835,2.976v7.907h-3.347V82.9q0-2.373-.1-4.744h2.915l.122,2.883h.093a5.169,5.169,0,0,1,1.673-2.389,4.046,4.046,0,0,1,2.419-.807,5.373,5.373,0,0,1,.837.061Zm14.968,3.877a7.859,7.859,0,0,1-.122,1.519H284.8a4.371,4.371,0,0,0,1.457,3.414,4.98,4.98,0,0,0,3.284,1.052,11.1,11.1,0,0,0,4.063-.711l.524,2.323a12.556,12.556,0,0,1-5.05.931,7.319,7.319,0,0,1-5.5-2.06,7.62,7.62,0,0,1-2-5.534,8.634,8.634,0,0,1,1.862-5.672A6.413,6.413,0,0,1,288.7,77.82a5.613,5.613,0,0,1,4.931,2.417A8.135,8.135,0,0,1,294.963,84.976Zm-3.191-.868a4.534,4.534,0,0,0-.65-2.574,2.922,2.922,0,0,0-2.665-1.4,3.173,3.173,0,0,0-2.664,1.365,5,5,0,0,0-.991,2.6Z" transform="translate(-169.812 -72.016)" fill="#fff"/>
  </g>
  <g id="Group_195" data-name="Group 195" transform="translate(67.167 8.893)">
    <path id="Path_876" data-name="Path 876" d="M177.213,37.114a21.362,21.362,0,0,1-2.406-.122v-10.1a18.211,18.211,0,0,1,2.833-.214c3.838,0,5.606,1.889,5.606,4.969C183.245,35.2,181.158,37.114,177.213,37.114Zm.562-9.144a6.711,6.711,0,0,0-1.325.107v7.681a8.682,8.682,0,0,0,1.111.046c2.515,0,3.946-1.432,3.946-4.114C181.508,29.3,180.213,27.97,177.775,27.97Zm10.979,9.221a3.524,3.524,0,0,1-3.565-3.81,3.606,3.606,0,0,1,3.687-3.916,3.5,3.5,0,0,1,3.565,3.8A3.628,3.628,0,0,1,188.754,37.191Zm.063-6.523c-1.188,0-1.95,1.112-1.95,2.666,0,1.525.777,2.637,1.934,2.637s1.934-1.189,1.934-2.668C190.735,31.8,189.973,30.668,188.816,30.668Zm15.96-1.051-2.315,7.406h-1.509l-.959-3.216a24.383,24.383,0,0,1-.595-2.392h-.031a16.04,16.04,0,0,1-.593,2.392l-1.02,3.216h-1.524l-2.179-7.406h1.691l.838,3.521q.3,1.258.5,2.378h.031c.121-.623.319-1.4.609-2.362l1.052-3.535h1.341l1.006,3.459c.243.839.441,1.661.595,2.439h.044a21.317,21.317,0,0,1,.5-2.439l.9-3.459,1.615,0Zm8.524,7.406h-1.645V32.771c0-1.31-.5-1.966-1.493-1.966a1.709,1.709,0,0,0-1.645,1.814v4.4h-1.645V31.734c0-.655-.016-1.357-.061-2.118h1.447l.077,1.143h.046a2.659,2.659,0,0,1,2.347-1.294c1.554,0,2.574,1.189,2.574,3.123l0,4.435Zm4.537,0H216.19v-10.8h1.647Zm6,.168a3.525,3.525,0,0,1-3.565-3.81,3.606,3.606,0,0,1,3.686-3.916,3.5,3.5,0,0,1,3.565,3.8A3.627,3.627,0,0,1,223.834,37.191Zm.061-6.523c-1.188,0-1.95,1.112-1.95,2.666,0,1.525.779,2.637,1.932,2.637s1.934-1.189,1.934-2.668C225.814,31.8,225.054,30.668,223.9,30.668Zm10.111,6.355-.119-.853h-.044a2.527,2.527,0,0,1-2.165,1.021,2.153,2.153,0,0,1-2.268-2.18c0-1.828,1.584-2.773,4.326-2.773V32.1c0-.975-.516-1.464-1.537-1.464a3.463,3.463,0,0,0-1.934.55l-.334-1.082a4.73,4.73,0,0,1,2.541-.641c1.934,0,2.91,1.021,2.91,3.064v2.728a11.191,11.191,0,0,0,.107,1.768l-1.483,0Zm-.226-3.689c-1.827,0-2.744.443-2.744,1.493a1.049,1.049,0,0,0,1.129,1.157,1.576,1.576,0,0,0,1.615-1.508Zm9.591,3.689-.077-1.189h-.046a2.481,2.481,0,0,1-2.377,1.357c-1.785,0-3.107-1.57-3.107-3.78,0-2.316,1.37-3.948,3.242-3.948A2.224,2.224,0,0,1,243.1,30.47h.033V26.219h1.647v8.808c0,.716.017,1.387.061,2h-1.465Zm-.243-4.358a1.791,1.791,0,0,0-1.733-1.921c-1.22,0-1.965,1.082-1.965,2.605,0,1.493.774,2.516,1.932,2.516a1.848,1.848,0,0,0,1.766-1.966Zm12.087,4.526a3.524,3.524,0,0,1-3.563-3.81,3.606,3.606,0,0,1,3.686-3.916,3.5,3.5,0,0,1,3.565,3.8A3.626,3.626,0,0,1,255.215,37.191Zm.061-6.523c-1.187,0-1.948,1.112-1.948,2.666,0,1.525.777,2.637,1.932,2.637s1.934-1.189,1.934-2.668C257.2,31.8,256.437,30.668,255.277,30.668Zm12.473,6.355H266.1V32.771c0-1.31-.5-1.966-1.493-1.966a1.708,1.708,0,0,0-1.644,1.814v4.4H261.32V31.734c0-.655-.016-1.357-.061-2.118h1.447l.077,1.143h.046a2.658,2.658,0,0,1,2.345-1.3c1.554,0,2.576,1.189,2.576,3.123Zm11.068-6.171h-1.81v3.6c0,.916.317,1.372.957,1.372a3.238,3.238,0,0,0,.73-.077l.046,1.25a3.643,3.643,0,0,1-1.276.184c-1.3,0-2.072-.716-2.072-2.591V30.852h-1.08V29.617h1.08V28.261l1.615-.488v1.844h1.81Zm8.709,6.171h-1.644V32.8c0-1.325-.5-2-1.493-2a1.614,1.614,0,0,0-1.647,1.753v4.465H281.1v-10.8h1.644v4.449h.033a2.5,2.5,0,0,1,2.226-1.2c1.567,0,2.524,1.219,2.524,3.155Zm8.922-3.307h-4.937a2.125,2.125,0,0,0,2.333,2.194,5.558,5.558,0,0,0,2-.35L296.1,36.7a6.177,6.177,0,0,1-2.483.457,3.437,3.437,0,0,1-3.686-3.733c0-2.271,1.4-3.978,3.5-3.978,1.892,0,3.078,1.4,3.078,3.521A3.171,3.171,0,0,1,296.45,33.716Zm-1.509-1.173c0-1.143-.576-1.95-1.628-1.95a1.952,1.952,0,0,0-1.8,1.95Z" transform="translate(-174.806 -26.219)" fill="#fff"/>
  </g>
</svg>
