<svg id="google-play-badge" xmlns="http://www.w3.org/2000/svg" xmlns:xlink="http://www.w3.org/1999/xlink" width="202" height="60" viewBox="0 0 202 60">
  <defs>
    <linearGradient id="linear-gradient" x1="0.908" y1="1.032" x2="-0.383" y2="0.36" gradientUnits="objectBoundingBox">
      <stop offset="0" stop-color="#00a0ff"/>
      <stop offset="0.007" stop-color="#00a1ff"/>
      <stop offset="0.26" stop-color="#00beff"/>
      <stop offset="0.512" stop-color="#00d2ff"/>
      <stop offset="0.76" stop-color="#00dfff"/>
      <stop offset="1" stop-color="#00e3ff"/>
    </linearGradient>
    <linearGradient id="linear-gradient-2" x1="1.077" y1="0.729" x2="-1.307" y2="0.729" gradientUnits="objectBoundingBox">
      <stop offset="0" stop-color="#ffe000"/>
      <stop offset="0.409" stop-color="#ffbd00"/>
      <stop offset="0.775" stop-color="orange"/>
      <stop offset="1" stop-color="#ff9c00"/>
    </linearGradient>
    <linearGradient id="linear-gradient-3" x1="0.864" y1="-0.023" x2="-0.499" y2="-1.789" gradientUnits="objectBoundingBox">
      <stop offset="0" stop-color="#ff3a44"/>
      <stop offset="1" stop-color="#c31162"/>
    </linearGradient>
    <linearGradient id="linear-gradient-4" x1="-0.186" y1="2.701" x2="0.423" y2="1.909" gradientUnits="objectBoundingBox">
      <stop offset="0" stop-color="#32a071"/>
      <stop offset="0.069" stop-color="#2da771"/>
      <stop offset="0.476" stop-color="#15cf74"/>
      <stop offset="0.801" stop-color="#06e775"/>
      <stop offset="1" stop-color="#00f076"/>
    </linearGradient>
  </defs>
  <path id="Path_877" data-name="Path 877" d="M194.519,60H7.481A7.418,7.418,0,0,1,0,52.5V7.5A7.418,7.418,0,0,1,7.481,0H194.519A7.418,7.418,0,0,1,202,7.5v45A7.418,7.418,0,0,1,194.519,60Z"/>
  <path id="Path_879" data-name="Path 879" d="M50.378,11.85a4.092,4.092,0,0,1-1.047,3,4.688,4.688,0,0,1-6.584,0,4.416,4.416,0,0,1-1.347-3.3,4.416,4.416,0,0,1,1.347-3.3A4.394,4.394,0,0,1,46.039,6.9a3.976,3.976,0,0,1,1.8.45A3.26,3.26,0,0,1,49.181,8.4l-.748.75A2.787,2.787,0,0,0,46.039,8.1a2.974,2.974,0,0,0-2.394,1.05A3.094,3.094,0,0,0,42.6,11.7a3.094,3.094,0,0,0,1.047,2.55,3.848,3.848,0,0,0,2.394,1.05,3.278,3.278,0,0,0,2.544-1.05,2.487,2.487,0,0,0,.748-1.8H46.039v-1.2h4.339v.6ZM57.261,8.1h-4.04v2.85h3.741V12H53.221v2.85h4.04v1.2H52.024v-9h5.237ZM62.2,16.05H61V8.1H58.458V7.05h6.284V8.1H62.2Zm6.883,0v-9h1.2v9Zm6.284,0h-1.2V8.1H71.625V7.05H77.76V8.1H75.216v7.95Zm14.215-1.2a4.688,4.688,0,0,1-6.584,0,4.416,4.416,0,0,1-1.347-3.3A4.416,4.416,0,0,1,83,8.25a4.688,4.688,0,0,1,6.584,0,4.416,4.416,0,0,1,1.347,3.3A4.416,4.416,0,0,1,89.581,14.85Zm-5.686-.75a3.527,3.527,0,0,0,2.394,1.05,2.974,2.974,0,0,0,2.394-1.05,3.623,3.623,0,0,0,1.047-2.55A3.094,3.094,0,0,0,88.683,9a3.527,3.527,0,0,0-2.394-1.05A2.974,2.974,0,0,0,83.895,9a3.623,3.623,0,0,0-1.047,2.55A3.094,3.094,0,0,0,83.895,14.1Zm8.679,1.95v-9H93.92l4.339,7.05V7.05h1.2v9h-1.2L93.621,8.7v7.35H92.573Z" transform="translate(20.547 3.45)" fill="#fff"/>
  <path id="Path_880" data-name="Path 880" d="M81.5,24.15a6.3,6.3,0,0,0-6.434,6.45A6.394,6.394,0,0,0,81.5,37.05a6.3,6.3,0,0,0,6.434-6.45A6.215,6.215,0,0,0,81.5,24.15Zm0,10.2a3.719,3.719,0,0,1-3.591-3.9,3.719,3.719,0,0,1,3.591-3.9,3.63,3.63,0,0,1,3.591,3.9A3.719,3.719,0,0,1,81.5,34.35ZM67.584,24.15A6.3,6.3,0,0,0,61.15,30.6a6.394,6.394,0,0,0,6.434,6.45,6.3,6.3,0,0,0,6.434-6.45A6.215,6.215,0,0,0,67.584,24.15Zm0,10.2a3.719,3.719,0,0,1-3.591-3.9,3.719,3.719,0,0,1,3.591-3.9,3.63,3.63,0,0,1,3.591,3.9A3.719,3.719,0,0,1,67.584,34.35ZM50.976,26.1v2.7H57.41a5.678,5.678,0,0,1-1.5,3.45,6.615,6.615,0,0,1-4.938,1.95A6.975,6.975,0,0,1,43.943,27a7.067,7.067,0,0,1,7.033-7.2,7.409,7.409,0,0,1,4.938,1.95l1.945-1.95a9.576,9.576,0,0,0-6.733-2.7A10.106,10.106,0,0,0,41.1,27a10.106,10.106,0,0,0,10.025,9.9,8.6,8.6,0,0,0,6.883-2.85,9.043,9.043,0,0,0,2.394-6.3,5.638,5.638,0,0,0-.15-1.65H50.976Zm67.932,2.1a5.816,5.816,0,0,0-5.387-4.05c-3.292,0-5.985,2.55-5.985,6.45a6.27,6.27,0,0,0,6.284,6.45,6.135,6.135,0,0,0,5.237-2.85l-2.095-1.5a3.646,3.646,0,0,1-3.142,1.8,3.246,3.246,0,0,1-3.142-1.95l8.529-3.6-.3-.75Zm-8.679,2.1a3.64,3.64,0,0,1,3.292-3.75,2.646,2.646,0,0,1,2.394,1.35l-5.686,2.4ZM103.2,36.45h2.843V17.7H103.2ZM98.707,25.5A4.921,4.921,0,0,0,95.266,24a6.438,6.438,0,0,0-6.135,6.45,6.2,6.2,0,0,0,6.135,6.3,4.292,4.292,0,0,0,3.292-1.5h.15v.9c0,2.4-1.347,3.75-3.441,3.75a3.325,3.325,0,0,1-3.142-2.25L89.73,38.7a6.173,6.173,0,0,0,5.686,3.75c3.292,0,5.985-1.95,5.985-6.6V24.45H98.707V25.5Zm-3.292,8.85a3.719,3.719,0,0,1-3.591-3.9,3.719,3.719,0,0,1,3.591-3.9,3.605,3.605,0,0,1,3.441,3.9A3.605,3.605,0,0,1,95.416,34.35Zm36.51-16.65h-6.733V36.45h2.843V29.4h3.89a5.857,5.857,0,1,0,0-11.7Zm.15,9h-4.04V20.25h4.04a3.291,3.291,0,0,1,3.292,3.15,3.429,3.429,0,0,1-3.292,3.3ZM149.282,24c-2.095,0-4.19.9-4.938,2.85l2.544,1.05a2.641,2.641,0,0,1,2.544-1.35,2.814,2.814,0,0,1,2.993,2.4v.15a5.924,5.924,0,0,0-2.843-.75c-2.693,0-5.387,1.5-5.387,4.2a4.388,4.388,0,0,0,4.639,4.2,4.208,4.208,0,0,0,3.591-1.8h.15v1.5h2.693v-7.2A5.667,5.667,0,0,0,149.282,24Zm-.3,10.35c-.9,0-2.244-.45-2.244-1.65,0-1.5,1.646-1.95,2.993-1.95a5.775,5.775,0,0,1,2.544.6A3.488,3.488,0,0,1,148.983,34.35Zm15.711-9.9-3.142,8.1h-.15l-3.292-8.1h-2.993l4.938,11.4-2.843,6.3h2.843l7.631-17.7Zm-25.138,12H142.4V17.7h-2.843Z" transform="translate(20.398 8.55)" fill="#fff"/>
  <g id="Group_196" data-name="Group 196" transform="translate(14.963 10.721)">
    <path id="Path_881" data-name="Path 881" d="M10.6,7.5A2.938,2.938,0,0,0,10,9.6V42.75a2.972,2.972,0,0,0,.748,2.1l.15.15L29.452,26.4v-.3Z" transform="translate(-10 -6.971)" fill="url(#linear-gradient)"/>
    <path id="Path_882" data-name="Path 882" d="M29.035,28.55,22.9,22.4v-.45l6.135-6.15.15.15,7.332,4.2c2.095,1.2,2.095,3.15,0,4.35Z" transform="translate(-3.598 -2.821)" fill="url(#linear-gradient-2)"/>
    <path id="Path_883" data-name="Path 883" d="M35.388,26.3,29.1,20,10.4,38.75c.748.75,1.8.75,3.142.15L35.388,26.3" transform="translate(-9.801 -0.721)" fill="url(#linear-gradient-3)"/>
    <path id="Path_884" data-name="Path 884" d="M35.388,20.114,13.542,7.664c-1.347-.75-2.394-.6-3.142.15l18.7,18.6,6.284-6.3Z" transform="translate(-9.801 -7.135)" fill="url(#linear-gradient-4)"/>
    <path id="Path_885" data-name="Path 885" d="M35.239,24.1l-21.7,12.3a2.442,2.442,0,0,1-2.993,0l-.15.15.15.15a2.442,2.442,0,0,0,2.993,0Z" transform="translate(-9.801 1.329)" opacity="0.2"/>
    <path id="Path_886" data-name="Path 886" d="M10.6,38.45a2.938,2.938,0,0,1-.6-2.1v.15a2.972,2.972,0,0,0,.748,2.1v-.15H10.6Zm32.32-16.5-7.481,4.2.15.15,7.332-4.2a2.493,2.493,0,0,0,1.5-2.1C44.415,20.75,43.816,21.35,42.919,21.95Z" transform="translate(-10 -0.721)" opacity="0.12"/>
    <path id="Path_887" data-name="Path 887" d="M13.741,7.826l29.178,16.65c.9.6,1.5,1.2,1.5,1.95a2.493,2.493,0,0,0-1.5-2.1L13.741,7.676c-2.095-1.2-3.741-.3-3.741,2.1v.15C10,7.676,11.646,6.626,13.741,7.826Z" transform="translate(-10 -7.147)" fill="#fff" opacity="0.25"/>
  </g>
</svg>
