<?xml version="1.0" encoding="utf-8"?>
<!-- Generator: Adobe Illustrator 24.1.1, SVG Export Plug-In . SVG Version: 6.00 Build 0)  -->
<svg version="1.1" id="Layer_1" xmlns="http://www.w3.org/2000/svg" xmlns:xlink="http://www.w3.org/1999/xlink" x="0px" y="0px"
	 viewBox="0 0 122.75 100" style="enable-background:new 0 0 122.75 100;" xml:space="preserve">
<style type="text/css">
	.st0{fill:#04A777;}
	.st1{fill:#E76F51;}
</style>
<g>
	<path class="st0" d="M111.01,34.8c-1.38,0-2.63-0.94-2.95-2.34C104.41,16.92,90.72,6.07,74.76,6.07H3.04C1.36,6.07,0,4.71,0,3.04
		S1.36,0,3.04,0h71.73c9.12,0,18.07,3.15,25.18,8.87c7.01,5.63,11.99,13.51,14.02,22.2c0.38,1.63-0.63,3.27-2.26,3.65
		C111.47,34.77,111.24,34.8,111.01,34.8z"/>
	<path class="st0" d="M98.53,32.81c-1.39,0-2.65-0.97-2.96-2.38c-1.84-8.36-9.4-14.43-17.97-14.43h-9.85
		c-1.68,0-3.04-1.36-3.04-3.04s1.36-3.04,3.04-3.04h9.85c5.6,0,11.08,1.95,15.43,5.49c4.28,3.49,7.29,8.36,8.47,13.71
		c0.36,1.64-0.67,3.26-2.31,3.62C98.97,32.79,98.75,32.81,98.53,32.81z"/>
	<path class="st0" d="M43.81,34.62H9.96c-1.68,0-3.04-1.36-3.04-3.04c0-1.68,1.36-3.04,3.04-3.04h28.68
		c1.14-4.32,3.61-8.52,6.54-12.55H9.96c-1.68,0-3.04-1.36-3.04-3.04s1.36-3.04,3.04-3.04h47.82l-4.04,4.96
		c-4.57,5.6-8.89,11.54-9.59,17.09L43.81,34.62z"/>
	<path class="st0" d="M67.76,44.74c-0.35-0.97-0.85-1.88-1.48-2.7c-1.2-1.56-2.78-2.7-4.63-3.38c-1.28-0.47-2.68-0.71-4.18-0.71
		c-1.51,0-3.01,0.25-4.46,0.71c-3.35,1.06-6.43,3.24-8.63,6.07c-1.35,1.73-2.37,3.69-2.93,5.79c-0.99,3.7-0.38,7.37,1.69,10.06
		c2.02,2.63,5.15,4.09,8.81,4.09c7.1,0,14.14-5.53,16.03-12.58C68.66,49.53,68.58,46.97,67.76,44.74z M62.1,50.54
		c-1.17,4.38-5.82,8.07-10.16,8.07c-1.72,0-3.14-0.61-3.99-1.71c-0.92-1.2-1.14-2.9-0.64-4.79c0.86-3.23,3.62-6.09,6.75-7.37
		c1.11-0.45,2.27-0.71,3.41-0.71c1.1,0,2.07,0.24,2.85,0.71c0.45,0.26,0.83,0.6,1.14,1c0.6,0.78,0.9,1.77,0.9,2.89
		C62.37,49.24,62.28,49.88,62.1,50.54z"/>
	<path class="st0" d="M112.3,44.74c-0.35-0.97-0.85-1.88-1.48-2.7c-1.2-1.56-2.78-2.7-4.63-3.38c-1.28-0.47-2.68-0.71-4.18-0.71
		c-1.51,0-3.01,0.25-4.46,0.71c-3.35,1.06-6.43,3.24-8.63,6.07c-1.35,1.73-2.37,3.69-2.93,5.79c-0.99,3.7-0.38,7.37,1.69,10.06
		c2.02,2.63,5.15,4.09,8.81,4.09c7.1,0,14.14-5.53,16.03-12.58C113.2,49.53,113.12,46.97,112.3,44.74z M106.65,50.54
		c-1.17,4.38-5.82,8.07-10.16,8.07c-1.72,0-3.14-0.61-3.99-1.71c-0.92-1.2-1.14-2.9-0.64-4.79c0.86-3.23,3.62-6.09,6.75-7.37
		c1.11-0.45,2.27-0.71,3.41-0.71c1.1,0,2.07,0.24,2.85,0.71c0.45,0.26,0.83,0.6,1.14,1c0.6,0.78,0.9,1.77,0.9,2.89
		C106.91,49.24,106.82,49.88,106.65,50.54z"/>
	<path class="st0" d="M41.89,44.74H26.76c-1.68,0-3.04-1.36-3.04-3.04c0-1.68,1.36-3.04,3.04-3.04h21.44
		c-0.66,0.4-1.31,0.85-1.93,1.34C44.53,41.37,43.06,42.98,41.89,44.74z"/>
	<path class="st0" d="M86.43,44.74H69.9c-0.43-1.42-1.1-2.75-2-3.93c-0.62-0.81-1.33-1.53-2.11-2.14h26.96
		c-0.66,0.4-1.31,0.85-1.93,1.34C89.08,41.37,87.6,42.98,86.43,44.74z"/>
	<path class="st0" d="M122.72,41.71c0,1.68-1.36,3.04-3.04,3.04h-5.25c-0.43-1.42-1.1-2.75-2-3.93c-0.62-0.81-1.33-1.53-2.11-2.14
		h9.37C121.36,38.67,122.72,40.03,122.72,41.71z"/>
	<path class="st1" d="M38.23,83.82c1.43-5.35,6.93-9.69,12.29-9.69s8.53,4.34,7.09,9.69c-1.05,3.91-2.7,5-12.88,15.63
		c-0.67,0.7-1.7,0.7-1.99,0C38.25,88.82,37.19,87.73,38.23,83.82z M51.96,83.82c0.6-2.23-0.73-4.04-2.96-4.04
		c-2.23,0-4.52,1.81-5.12,4.04c-0.6,2.23,0.73,4.04,2.96,4.04C49.07,87.86,51.36,86.05,51.96,83.82z"/>
	<path class="st0" d="M30.87,74.09h7.03L33.35,100h-6.59l2.44-13.99L21.1,96.45h-0.67l-4.41-10.62L13.55,100H6.92l4.55-25.91h6.63
		l4.22,11.18L30.87,74.09z"/>
	<path class="st0" d="M70.17,100h-7.92l-3.52-25.91h6.89l1.67,18.21l8.03-18.21h7.48L70.17,100z"/>
	<path class="st0" d="M101.12,74.09l-1.11,6.18H90.2l-0.67,3.63h8.96l-1.11,6.07h-8.88l-0.67,3.81h10L96.75,100H80.09l4.55-25.91
		H101.12z"/>
	<path class="st0" d="M122.59,83.41c-0.62,3.38-2.49,5.78-5.63,7.18l3.55,9.4h-6.66l-3.04-8.37H108l-1.48,8.37h-6.63l4.59-25.91
		h10.14c2.57,0,4.65,0.91,6.26,2.74C122.49,78.68,123.06,80.87,122.59,83.41z M113.56,80.19H110l-1.04,5.81h3.81
		c0.81,0.02,1.51-0.23,2.09-0.78c0.58-0.54,0.94-1.25,1.09-2.11c0.15-0.86,0.01-1.57-0.43-2.11
		C115.1,80.47,114.44,80.19,113.56,80.19z"/>
</g>
</svg>
