<svg xmlns="http://www.w3.org/2000/svg" viewBox="0 0 192 192"><defs><style>.cls-1{fill:#e6fff6;stroke-miterlimit:10;}.cls-1,.cls-2{stroke:#04a777;stroke-width:5px;}.cls-2{fill:none;stroke-linecap:round;stroke-linejoin:round;}</style></defs><g id="Layer_10" data-name="Layer 10"><path class="cls-1" d="M93.45,8.87C74.72,23.63,53,30,28.45,30.63a4.08,4.08,0,0,0-4,4.08V81.65c0,36.46,28.71,80.43,66.44,101a10.59,10.59,0,0,0,10.16,0c37.73-20.62,66.44-64.59,66.44-101V34.72a4.07,4.07,0,0,0-4-4.08c-24.53-.59-46.41-6.72-65-21.74A4.07,4.07,0,0,0,93.45,8.87Z"/><polyline class="cls-2" points="74.81 94.05 89.65 108.89 123.42 75.11"/></g></svg>