<svg xmlns="http://www.w3.org/2000/svg" viewBox="0 0 192 192"><defs><style>.cls-1{fill:#04a777;}</style></defs><g id="Layer_10" data-name="Layer 10"><path class="cls-1" d="M19.83,130.52c.58-10.8,6.37-20.93,17.81-27.39,7.84-4.43,16.27-5.41,25.21-3.31C77.5,103.26,87.92,116.6,89,130.29c.63,7.84-1.77,14.88-5.57,21.45-6.65,11.5-15.38,21.34-25.32,30.12-.58.51-1.25.93-1.86,1.41a2.71,2.71,0,0,1-3.68,0c-1-.78-2.07-1.5-3-2.35a127.86,127.86,0,0,1-24.06-29A40.57,40.57,0,0,1,19.83,130.52Zm14,2.52a20.65,20.65,0,1,0,20.72-20.61A20.58,20.58,0,0,0,33.84,133Z"/><path class="cls-1" d="M151.83,8a20.09,20.09,0,0,1,19,27.38c-2.44,6.35-6.8,11.41-11.32,16.32-1.91,2.07-4.09,3.91-6.16,5.84a1.88,1.88,0,0,1-2.82.07c-7.43-6.4-14.13-13.48-17.67-22.77C127.85,21.82,137.79,8,151.83,8ZM139.74,28.2a12.16,12.16,0,1,0,12.18-12.1A12.16,12.16,0,0,0,139.74,28.2Z"/><path class="cls-1" d="M89.08,172.68c.46,1.83.85,3.38,1.3,5.14l-19.86,5.07-.24-.33c1.76-2.1,3.51-4.21,5.3-6.27a2.16,2.16,0,0,1,1.09-.59C80.72,174.7,84.77,173.73,89.08,172.68Z"/><path class="cls-1" d="M105.41,168.28c.51,1.72,1,3.19,1.45,4.89l-13.11,3.74-1.37-5.07Z"/><path class="cls-1" d="M121.51,163.27c.54,1.53,1,2.9,1.63,4.61l-12.91,4.29c-.53-1.61-1-3.1-1.59-4.81Z"/><path class="cls-1" d="M126.42,166.75c-.61-1.65-1.1-3-1.68-4.54l12.51-4.89,1.9,4.3Z"/><path class="cls-1" d="M151.9,149.64c.81,1.14,1.58,2.23,2.6,3.65l-12.13,7-2-4.24Z"/><path class="cls-1" d="M157.08,150.67l-2.82-3.16c3-2.51,5.25-5.33,4.16-9.65l3.81-1C164.38,141,162,147.43,157.08,150.67Z"/><path class="cls-1" d="M161.17,133.17l-3.33,1.72L149.55,125l2.41-2.77C155.64,125.41,158.93,128.73,161.17,133.17Z"/><path class="cls-1" d="M135.91,115.32l2.05-3.21,11.35,7.79-2.44,3.17Z"/><path class="cls-1" d="M121.44,106.5l1.84-3.08,11.7,7-2,3.19Z"/><path class="cls-1" d="M118.39,104.73,107,97.3l2-2.67,11.29,7.18C119.69,102.71,119.11,103.61,118.39,104.73Z"/><path class="cls-1" d="M106.22,92.61l-1.92,2.17c-5.86-4-7.64-9.32-5.27-12.93l2.39,1C101,87.22,101.44,88.1,106.22,92.61Z"/><path class="cls-1" d="M102.94,80.23,101,78.52c3.18-3.6,7.12-6,11.35-8.18l1.2,2.21C110,75.12,106.6,77.58,102.94,80.23Z"/><path class="cls-1" d="M116.71,71.21l-1.21-2.53,12.56-5.16,1,2.41Z"/><path class="cls-1" d="M146,60.24l-13.63,4.57-.92-2.41c3.88-1.22,7.59-2.5,11.37-3.49C143.52,58.71,144.53,59.6,146,60.24Z"/></g></svg>