<svg xmlns="http://www.w3.org/2000/svg" viewBox="0 0 192 192"><defs><style>.cls-1{fill:#04a777;}</style></defs><g id="Layer_10" data-name="Layer 10"><path class="cls-1" d="M80.25,61.82c-1.88-3.23-4.53-5.72-8.33-6.11-12.33-1.27-24.7-1-37.06-.32-2.87.17-5.6.86-7.67,2.89a26.35,26.35,0,0,0-3.71,4.92c-1.27,2-2.29,4.25-3.17,5.9-1.87-.27-3.4-.6-4.93-.67a30.28,30.28,0,0,0-4,.27c-1.81.15-2.47,1-2.44,3.06,0,1.9.76,2.74,2.51,2.87l4.76.35c0,.09,0,.18,0,.28-.37.17-.74.34-1.11.53C10.86,78,7.8,81.31,7.6,86.27c-.25,6.53-.11,13.07,0,19.6,0,1,.56,2.52,1.24,2.78,1.71.65,1.52,1.81,1.49,3.08q0,1.17,0,2.34a3.77,3.77,0,0,0,3.95,4c1.45,0,2.9,0,4.35,0,2.85,0,4.24-1.46,4.28-4.35,0-1.38,0-2.76,0-4.15H42.46c0-2.84,0-5.69.16-8.52a15.72,15.72,0,0,1,4-10.11,7,7,0,0,1-2.57-5.72C44,79.05,48.49,78,50.43,77.82l1.06-.11a31.44,31.44,0,0,1,3.18-.21h.74a27.26,27.26,0,0,1,3,.34c.69-1.34,1.46-2.8,2.35-4.23l.31-.51C48,72.87,35,73.16,21.91,74c.39-.74.71-1.36,1-2l4.38-8.22a9.24,9.24,0,0,1,8.34-5.27c6.2-.19,12.41-.47,18.61-.45,5.21,0,10.43.45,15.64.66a7.43,7.43,0,0,1,6.31,3.67c.14.23.28.46.41.69,1.44-.08,2.84-.16,4.2-.22C80.65,62.51,80.45,62.16,80.25,61.82ZM25.86,86.18a4.76,4.76,0,0,1,3.43,5.39C29,92.89,28,93.24,26.84,93.21c-2-.06-4-.17-6-.26V93c-2.07-.09-4.13-.17-6.19-.29A2.77,2.77,0,0,1,11.77,90a27.91,27.91,0,0,1,0-3.88,2.13,2.13,0,0,1,2.67-2.09C18.26,84.72,22.07,85.4,25.86,86.18Z"/><path class="cls-1" d="M184,87.5a12,12,0,0,0-4.87-9.94c-1.19-.93-2.54-1.65-4-2.57,1.87-.13,3.57-.22,5.26-.39,1.45-.15,2.13-1,2.18-2.7.06-1.87-.5-3.06-1.84-3.12-3.11-.14-6.33-1.4-9.28.79-1.44-2.66-2.75-5.25-4.21-7.75-1.88-3.23-4.53-5.72-8.33-6.11-12.34-1.27-24.7-1-37.06-.32-2.87.17-5.6.86-7.67,2.89a24.66,24.66,0,0,0-3.48,4.56c1.35.08,2.68.18,4,.29a9.14,9.14,0,0,1,8-4.62c6.2-.19,12.4-.47,18.6-.45,5.22,0,10.43.45,15.65.66a7.45,7.45,0,0,1,6.31,3.67c2.26,3.69,4.23,7.55,6.46,11.59-13-.81-25.86-1.1-38.72-.88.86,1.51,1.68,3,2.48,4.55a12.48,12.48,0,0,1,2.78-.29,27.34,27.34,0,0,1,3.68.31c.78.1,1.52.2,2.19.23,2.81.13,6,2.19,5.85,7.57a6.8,6.8,0,0,1-2.64,5.58,17.15,17.15,0,0,1,4.2,11.58c0,2.32,0,4.66,0,7h19.12c0,1.63-.05,3.14,0,4.64a3.67,3.67,0,0,0,3.66,3.84,48.76,48.76,0,0,0,5.27,0,3.68,3.68,0,0,0,3.63-3.87c0-1.3,0-2.6,0-3.89,0-.36.19-.95.41-1,2.26-.7,2.37-2.5,2.37-4.38C184,99.11,184,93.31,184,87.5Zm-4.26,2.57A2.72,2.72,0,0,1,177,92.71c-2.11.14-4.23.21-6.35.3V93c-1.91.09-3.82.19-5.73.25-2.19.08-3-.9-2.66-3.08a4.52,4.52,0,0,1,3.89-4c3.55-.69,7.1-1.34,10.65-2a2.24,2.24,0,0,1,2.95,2.26A28.85,28.85,0,0,1,179.74,90.07Z"/><path class="cls-1" d="M56.12,88.76c-1.76-.13-3.51-.25-5.26-.39-1.94-.15-2.75-1.08-2.78-3.17,0-2.29.7-3.22,2.69-3.4a33.47,33.47,0,0,1,4.45-.29c1.7.08,3.39.44,5.46.74,1-1.83,2.11-4.26,3.51-6.53a28.48,28.48,0,0,1,4.11-5.44c2.28-2.25,5.3-3,8.48-3.2,13.68-.79,27.36-1,41,.35,4.21.43,7.14,3.19,9.22,6.77,1.61,2.77,3.07,5.62,4.66,8.57,3.26-2.42,6.83-1,10.27-.87,1.48.07,2.1,1.38,2,3.45-.06,1.83-.82,2.82-2.42,3-1.87.19-3.74.28-5.82.43,1.59,1,3.09,1.81,4.4,2.84a13.29,13.29,0,0,1,5.39,11c0,6.42,0,12.85,0,19.27,0,2.08-.12,4.08-2.61,4.85-.26.07-.44.73-.46,1.12-.05,1.44,0,2.87,0,4.31a4.08,4.08,0,0,1-4,4.29,54,54,0,0,1-5.83,0,4.05,4.05,0,0,1-4-4.25c-.07-1.66,0-3.32,0-5.13h-65c0,1.54,0,3.07,0,4.6,0,3.2-1.59,4.76-4.74,4.81-1.6,0-3.21.05-4.81,0A4.16,4.16,0,0,1,49.63,132c0-.86,0-1.72,0-2.58,0-1.41.24-2.69-1.65-3.41-.76-.29-1.35-2-1.37-3.08-.12-7.22-.27-14.46,0-21.68.22-5.49,3.61-9.1,8.29-11.59.4-.22.82-.4,1.23-.6Zm73.58-1.11c-2.46-4.47-4.65-8.74-7.15-12.82a8.25,8.25,0,0,0-7-4.07c-5.77-.22-11.54-.7-17.31-.72-6.86,0-13.72.29-20.58.49a10.24,10.24,0,0,0-9.24,5.83c-1.61,3-3.23,6.06-4.84,9.1-.36.67-.71,1.36-1.15,2.18A537,537,0,0,1,129.7,87.65ZM61.22,108.71h0c2.23.09,4.45.15,6.68.22,1.31,0,2.41-.35,2.71-1.82a5.26,5.26,0,0,0-3.79-6c-4.19-.87-8.4-1.62-12.62-2.36a2.37,2.37,0,0,0-3,2.31,32.33,32.33,0,0,0,0,4.29,3.06,3.06,0,0,0,3.14,3C56.65,108.52,58.94,108.6,61.22,108.71Zm69.55,0h0c2.34-.11,4.68-.19,7-.33a3,3,0,0,0,3-2.92,31.47,31.47,0,0,0,0-4.12c-.11-1.94-1.32-2.86-3.26-2.5-3.93.71-7.86,1.43-11.78,2.2a5,5,0,0,0-4.3,4.47c-.42,2.41.51,3.49,2.94,3.41C126.54,108.84,128.65,108.8,130.77,108.71Z"/></g></svg>