<svg xmlns="http://www.w3.org/2000/svg" viewBox="0 0 192 192"><defs><style>.cls-1{fill:#e6fff6;stroke:#04a777;stroke-miterlimit:10;stroke-width:5px;}.cls-2{fill:#04a777;}</style></defs><g id="Layer_10" data-name="Layer 10"><path class="cls-1" d="M175.37,134.3H128.53V57.24h34.56a9.51,9.51,0,0,1,8.47,5.19l9.34,18.36A28.45,28.45,0,0,1,184,93.72v32A8.62,8.62,0,0,1,175.37,134.3Z"/><path class="cls-1" d="M14.3,42.8H121.77a6.75,6.75,0,0,1,6.75,6.75V134.3a0,0,0,0,1,0,0H14.3A6.3,6.3,0,0,1,8,128V49.11A6.3,6.3,0,0,1,14.3,42.8Z"/><circle class="cls-1" cx="156.26" cy="135.95" r="13.24"/><circle class="cls-1" cx="54.43" cy="135.95" r="13.24"/><path class="cls-1" d="M173.59,66.42H150.18a4.07,4.07,0,0,0-4.06,4.07V94.56a4.06,4.06,0,0,0,4.06,4.06H184v-4.9a28.45,28.45,0,0,0-3.1-12.93Z"/><rect class="cls-2" x="172.15" y="107.09" width="11.85" height="8.51"/><rect class="cls-2" x="8" y="107.09" width="11.85" height="8.51"/></g></svg>